<svg width="26" height="27" viewBox="0 0 26 27" fill="none" xmlns="http://www.w3.org/2000/svg">
<g filter="url(#filter0_d_14_492)">
<path d="M13.5207 4.21977H12.4826C12.3876 4.21977 12.3099 4.2993 12.3099 4.39651V10.4787C12.3099 10.5362 12.3358 10.5892 12.3811 10.6223L15.9488 13.289C16.0265 13.3464 16.1344 13.3309 16.1905 13.2514L16.8078 12.3898C16.866 12.308 16.8488 12.1976 16.7711 12.1423L13.6934 9.86454V4.39651C13.6934 4.2993 13.6157 4.21977 13.5207 4.21977ZM18.2646 5.88117L21.6488 6.72733C21.7567 6.75384 21.8625 6.66989 21.8625 6.55721L21.8798 2.98919C21.8798 2.84117 21.7136 2.75721 21.6013 2.85L18.1999 5.56965C18.1742 5.59001 18.1546 5.61738 18.1434 5.64862C18.1322 5.67986 18.1299 5.71369 18.1366 5.74623C18.1434 5.77877 18.159 5.8087 18.1816 5.83257C18.2043 5.85644 18.233 5.87328 18.2646 5.88117ZM21.8841 12.5334L20.6603 12.1026C20.6177 12.0876 20.571 12.0903 20.5302 12.1101C20.4895 12.1299 20.4579 12.1653 20.4423 12.2086C20.4013 12.3213 20.3582 12.4317 20.3128 12.5422C19.9287 13.4723 19.3783 14.3097 18.6747 15.0277C17.9789 15.7421 17.1543 16.3116 16.2466 16.7045C15.3063 17.1115 14.2955 17.3204 13.2747 17.3187C12.243 17.3187 11.2437 17.1133 10.3027 16.7045C9.39499 16.3116 8.5704 15.7421 7.87461 15.0277C7.17317 14.3097 6.6228 13.4723 6.23647 12.5422C5.84111 11.5791 5.63854 10.5447 5.64078 9.5C5.64078 8.44396 5.8415 7.41884 6.24078 6.45558C6.62496 5.52547 7.17532 4.68814 7.87893 3.97012C8.57472 3.25567 9.39931 2.6862 10.307 2.29326C11.2437 1.88454 12.2451 1.67907 13.2768 1.67907C14.3085 1.67907 15.3078 1.88454 16.2488 2.29326C17.1565 2.6862 17.9811 3.25567 18.6769 3.97012C18.897 4.19768 19.1042 4.43407 19.2941 4.68372L20.5848 3.64977C18.8862 1.42721 16.2423 -0.00220674 13.2725 2.55736e-06C8.10123 0.00221186 3.94868 4.30151 4.00048 9.59721C4.05228 14.8001 8.1854 19 13.2768 19C17.2804 19 20.6905 16.4019 21.9898 12.7631C22.0222 12.6704 21.9747 12.5665 21.8841 12.5334Z" fill="#565455"/>
</g>
<defs>
<filter id="filter0_d_14_492" x="0" y="0" width="26" height="27" filterUnits="userSpaceOnUse" color-interpolation-filters="sRGB">
<feFlood flood-opacity="0" result="BackgroundImageFix"/>
<feColorMatrix in="SourceAlpha" type="matrix" values="0 0 0 0 0 0 0 0 0 0 0 0 0 0 0 0 0 0 127 0" result="hardAlpha"/>
<feOffset dy="4"/>
<feGaussianBlur stdDeviation="2"/>
<feColorMatrix type="matrix" values="0 0 0 0 0 0 0 0 0 0 0 0 0 0 0 0 0 0 0.25 0"/>
<feBlend mode="normal" in2="BackgroundImageFix" result="effect1_dropShadow_14_492"/>
<feBlend mode="normal" in="SourceGraphic" in2="effect1_dropShadow_14_492" result="shape"/>
</filter>
</defs>
</svg>
